<?xml version="1.0" standalone="no"?>
<!DOCTYPE svg PUBLIC "-//W3C//DTD SVG 1.1//EN" "http://www.w3.org/Graphics/SVG/1.1/DTD/svg11.dtd">
<svg version="1.1" xmlns="http://www.w3.org/2000/svg" viewBox="0 0 1430.4231959850856 423.3950640927429" width="2860.846391970171" height="846.7901281854859"><!-- svg-source:excalidraw --><metadata></metadata><defs><style class="style-fonts">
      @font-face { font-family: Nunito; src: url(https://esm.sh/@excalidraw/excalidraw@0.5.0-ffade30/dist/prod/fonts/Nunito/Nunito-Regular-XRXI3I6Li01BKofiOc5wtlZ2di8HDIkhdTQ3j6zbXWjgeg.woff2); }</style></defs><g stroke-linecap="round" transform="translate(10 10) rotate(0 705.2115979925428 201.69753204637146)"><path d="M0.56 0.43 L1408.5 -1.9 L1410.57 403.26 L-1.23 403.68" stroke="none" stroke-width="0" fill="#ffffff"></path><path d="M0 0 C411.08 -2.96, 822.09 -3.47, 1410.42 0 M0 0 C290.37 -3.4, 579.96 -3.58, 1410.42 0 M1410.42 0 C1411.49 126.42, 1413.16 252.62, 1410.42 403.4 M1410.42 0 C1412.18 104.07, 1413 208.96, 1410.42 403.4 M1410.42 403.4 C960.67 398.8, 510.28 399.82, 0 403.4 M1410.42 403.4 C1040.63 401.36, 670.54 401.43, 0 403.4 M0 403.4 C0.88 258.21, 0.11 114.72, 0 0 M0 403.4 C0.11 258.66, -0.28 114.25, 0 0" stroke="#1e1e1e" stroke-width="4" fill="none"></path></g><g stroke-linecap="round" transform="translate(49.14937269449365 39.91165198280203) rotate(0 348.5802568510478 46.51390968933788)"><path d="M-0.12 -0.04 L695.22 -1.67 L697.18 94.75 L-1.5 92.16" stroke="none" stroke-width="0" fill="#a5d8ff"></path><path d="M0 0 C142.75 3.43, 285.87 3, 697.16 0 M0 0 C268.59 2.56, 538.03 2.3, 697.16 0 M697.16 0 C696.06 20.8, 698.11 41.4, 697.16 93.03 M697.16 0 C696.61 25.53, 697.24 50.32, 697.16 93.03 M697.16 93.03 C555.7 95.01, 414.96 95.56, 0 93.03 M697.16 93.03 C473.9 94.66, 250.5 94.59, 0 93.03 M0 93.03 C-0.82 69.11, -0.83 48.05, 0 0 M0 93.03 C-1.08 68.64, -0.57 43.09, 0 0" stroke="#1e1e1e" stroke-width="4" fill="none"></path></g><g transform="translate(235.22567751917404 63.92556167213991) rotate(0 162.5039520263672 22.5)"><text x="162.5039520263672" y="34.344" font-family="Nunito, Segoe UI Emoji" font-size="36px" fill="#1e1e1e" text-anchor="middle" style="white-space: pre;" direction="ltr" dominant-baseline="alphabetic">Scheduler Interface </text></g><g stroke-linecap="round" transform="translate(46.651930944366086 141.9718888214253) rotate(0 350.2419109804798 117.5)"><path d="M1.26 1.31 L701.46 -1.71 L698.79 233.78 L-0.58 234.68" stroke="none" stroke-width="0" fill="#e7f5ff"></path><path d="M0 0 C196.38 2.13, 392.86 2.38, 700.48 0 M0 0 C145.24 1.66, 290.89 1.49, 700.48 0 M700.48 0 C700.97 69.78, 701.35 143.06, 700.48 235 M700.48 0 C698.8 87.82, 699.34 174.74, 700.48 235 M700.48 235 C452.63 235.42, 206.66 235.25, 0 235 M700.48 235 C532.54 232.72, 364.97 232.84, 0 235 M0 235 C0.75 163.89, -0.73 92.63, 0 0 M0 235 C2.06 159.89, 1.07 85.74, 0 0" stroke="#1e1e1e" stroke-width="4" fill="none"></path></g><g transform="translate(51.651930944366086 146.9718888214253) rotate(0 244.4578857421875 112.5)"><text x="0" y="34.344" font-family="Nunito, Segoe UI Emoji" font-size="36px" fill="#1e1e1e" text-anchor="start" style="white-space: pre;" direction="ltr" dominant-baseline="alphabetic">AddTask(ticketCount int) Task</text><text x="0" y="79.344" font-family="Nunito, Segoe UI Emoji" font-size="36px" fill="#1e1e1e" text-anchor="start" style="white-space: pre;" direction="ltr" dominant-baseline="alphabetic"></text><text x="0" y="124.344" font-family="Nunito, Segoe UI Emoji" font-size="36px" fill="#1e1e1e" text-anchor="start" style="white-space: pre;" direction="ltr" dominant-baseline="alphabetic">RemoveTask(taskID int) error</text><text x="0" y="169.344" font-family="Nunito, Segoe UI Emoji" font-size="36px" fill="#1e1e1e" text-anchor="start" style="white-space: pre;" direction="ltr" dominant-baseline="alphabetic"></text><text x="0" y="214.344" font-family="Nunito, Segoe UI Emoji" font-size="36px" fill="#1e1e1e" text-anchor="start" style="white-space: pre;" direction="ltr" dominant-baseline="alphabetic">NextTask() Task</text></g><g stroke-linecap="round" transform="translate(898.3049326291825 140.76120730065895) rotate(0 246.55999141297798 35.410497977156865)"><path d="M1.55 0.95 L494.11 -1.21 L491.49 70.2 L-1.31 69.97" stroke="none" stroke-width="0" fill="#a5d8ff"></path><path d="M0 0 C190.54 2.22, 381.78 1.3, 493.12 0 M0 0 C136.66 0.03, 272.65 0.25, 493.12 0 M493.12 0 C494.27 25.65, 492.92 52.48, 493.12 70.82 M493.12 0 C493.98 27.71, 492.75 55.9, 493.12 70.82 M493.12 70.82 C347.42 72.19, 200.97 71.44, 0 70.82 M493.12 70.82 C355.83 69.05, 218.73 69.6, 0 70.82 M0 70.82 C-0.21 48.2, 0.27 22.67, 0 0 M0 70.82 C-0.75 45.75, -0.89 20.37, 0 0" stroke="#1e1e1e" stroke-width="4" fill="none"></path></g><g transform="translate(1027.0369668888402 153.67170527781582) rotate(0 117.82795715332031 22.5)"><text x="117.82795715332031" y="34.344" font-family="Nunito, Segoe UI Emoji" font-size="36px" fill="#1e1e1e" text-anchor="middle" style="white-space: pre;" direction="ltr" dominant-baseline="alphabetic">Task Interface </text></g><g stroke-linecap="round" transform="translate(898.613043705122 219.64006545010704) rotate(0 247.0266884936873 38.62242767732391)"><path d="M-1.52 -0.27 L495 0.92 L495.23 76.17 L-1.67 78.92" stroke="none" stroke-width="0" fill="#e7f5ff"></path><path d="M0 0 C145.34 0.27, 289.57 1.32, 494.05 0 M0 0 C190.22 1.49, 379.96 1.56, 494.05 0 M494.05 0 C495.08 19.87, 493.1 36.62, 494.05 77.24 M494.05 0 C493.87 15.97, 495.3 31.09, 494.05 77.24 M494.05 77.24 C352.37 76.21, 208.98 74.68, 0 77.24 M494.05 77.24 C338.52 76.91, 183.56 77.2, 0 77.24 M0 77.24 C1.28 56.25, 0.44 38.9, 0 0 M0 77.24 C0.09 56.41, -0.24 34.73, 0 0" stroke="#1e1e1e" stroke-width="4" fill="none"></path></g><g transform="translate(903.613043705122 224.64006545010704) rotate(0 56.32197570800781 22.5)"><text x="0" y="34.344" font-family="Nunito, Segoe UI Emoji" font-size="36px" fill="#1e1e1e" text-anchor="start" style="white-space: pre;" direction="ltr" dominant-baseline="alphabetic">ID() int</text></g><g stroke-linecap="round"><g transform="translate(551.6172197658002 170.78765860255953) rotate(0 172.40481014804618 -0.31893196097468035)"><path d="M0.32 0.68 C58.14 0.29, 288.44 -1.07, 345.79 -1.32 M-0.98 -0.01 C56.83 0.25, 287.13 -0.34, 345.09 -0.3" stroke="#1e1e1e" stroke-width="4" fill="none"></path></g><g transform="translate(551.6172197658002 170.78765860255953) rotate(0 172.40481014804618 -0.31893196097468035)"><path d="M321.61 8.28 C327.48 7.25, 329.53 3.13, 345.09 -0.3 M321.61 8.28 C327.57 6.82, 334.22 4.04, 345.09 -0.3" stroke="#1e1e1e" stroke-width="4" fill="none"></path></g><g transform="translate(551.6172197658002 170.78765860255953) rotate(0 172.40481014804618 -0.31893196097468035)"><path d="M321.59 -8.82 C327.61 -6.34, 329.66 -6.96, 345.09 -0.3 M321.59 -8.82 C327.57 -5.83, 334.21 -4.16, 345.09 -0.3" stroke="#1e1e1e" stroke-width="4" fill="none"></path></g></g><mask></mask></svg>